<mxfile host="app.diagrams.net" modified="2023-11-07T17:49:07.949Z" agent="Mozilla/5.0 (Macintosh; Intel Mac OS X 10_15_7) AppleWebKit/537.36 (KHTML, like Gecko) Chrome/118.0.0.0 Safari/537.36" etag="wbv4mBcZ9ShNu-sqqFAD" version="22.0.8" type="github">
  <diagram name="第 1 页" id="N7jdsIERB-vte-1zk_kU">
    <mxGraphModel dx="1477" dy="1607" grid="1" gridSize="10" guides="1" tooltips="1" connect="1" arrows="1" fold="1" page="1" pageScale="1" pageWidth="1169" pageHeight="827" background="#ffffff" math="0" shadow="0">
      <root>
        <mxCell id="0" />
        <mxCell id="1" parent="0" />
        <mxCell id="Xq29cGh2QrOmxYL_RhDE-3" value="Project organization management system" style="shape=umlFrame;whiteSpace=wrap;html=1;pointerEvents=0;width=255;height=29;fillColor=#F5F5F5;strokeColor=#666666;fontColor=#333333;fillStyle=auto;shadow=0;" parent="1" vertex="1">
          <mxGeometry x="320" y="72" width="790" height="684" as="geometry" />
        </mxCell>
        <mxCell id="T3BMxGhGBOosbabUrvsc-1" value="Use Case" style="ellipse;whiteSpace=wrap;html=1;" vertex="1" parent="1">
          <mxGeometry x="380" y="150" width="100" height="50" as="geometry" />
        </mxCell>
        <mxCell id="T3BMxGhGBOosbabUrvsc-2" value="Actor" style="shape=umlActor;verticalLabelPosition=bottom;verticalAlign=top;html=1;" vertex="1" parent="1">
          <mxGeometry x="40" y="270" width="30" height="60" as="geometry" />
        </mxCell>
      </root>
    </mxGraphModel>
  </diagram>
</mxfile>
